<?xml version="1.0" encoding="utf-8"?>
<!-- Generator: Adobe Illustrator 22.0.1, SVG Export Plug-In . SVG Version: 6.00 Build 0)  -->
<svg version="1.0" id="Layer_1" xmlns="http://www.w3.org/2000/svg" xmlns:xlink="http://www.w3.org/1999/xlink" x="0px" y="0px"
	 width="25px" height="25px" viewBox="0 0 25 25" style="enable-background:new 0 0 25 25;" xml:space="preserve">
<style type="text/css">
	.st0{fill:#FFFFFF;}
</style>
<title>TopBar</title>
<path class="st0" d="M14,10.5c-0.828,0-1.5-0.672-1.5-1.5V0.5H4C3.601,0.493,3.217,0.653,2.94,0.94C2.653,1.217,2.493,1.601,2.5,2
	v21c0,0.828,0.672,1.5,1.5,1.5h17c0.828,0,1.5-0.672,1.5-1.5V10.5H14z M18.5,20c0.011,0.265-0.194,0.489-0.459,0.5
	c-0.014,0.001-0.027,0.001-0.041,0H7c-0.265,0.011-0.489-0.194-0.5-0.459c-0.001-0.014-0.001-0.027,0-0.041v-1
	c-0.011-0.265,0.194-0.489,0.459-0.5c0.014-0.001,0.027-0.001,0.041,0h11c0.265-0.011,0.489,0.194,0.5,0.459
	c0.001,0.014,0.001,0.027,0,0.041V20z M18.5,16c0.011,0.265-0.194,0.489-0.459,0.5c-0.014,0.001-0.027,0.001-0.041,0H7
	c-0.265,0.011-0.489-0.194-0.5-0.459c-0.001-0.014-0.001-0.027,0-0.041v-1c-0.011-0.265,0.194-0.489,0.459-0.5
	c0.014-0.001,0.027-0.001,0.041,0h11c0.265-0.011,0.489,0.194,0.5,0.459c0.001,0.014,0.001,0.027,0,0.041V16z"/>
<path class="st0" d="M21.44,6.44l-4.88-4.88c-0.566-0.539-1.286-0.889-2.06-1v8h8C22.384,7.758,22.013,7.014,21.44,6.44z"/>
</svg>
