<?xml version="1.0" encoding="utf-8"?>
<!-- Generator: Adobe Illustrator 22.0.1, SVG Export Plug-In . SVG Version: 6.00 Build 0)  -->
<svg version="1.0" id="Layer_1" xmlns="http://www.w3.org/2000/svg" xmlns:xlink="http://www.w3.org/1999/xlink" x="0px" y="0px"
	 width="27.67px" height="25px" viewBox="0 0 27.67 25" style="enable-background:new 0 0 27.67 25;" xml:space="preserve">
<style type="text/css">
	.st0{fill:#FFFFFF;}
</style>
<title>TopBar</title>
<path class="st0" d="M7.69,12.27c0.873-0.427,1.828-0.659,2.8-0.68h11.82V9.32c-0.005-1.754-1.426-3.175-3.18-3.18H11.4V5.68
	c0.017-0.846-0.325-1.659-0.94-2.24C9.879,2.825,9.066,2.483,8.22,2.5H3.67C2.824,2.483,2.011,2.825,1.43,3.44
	C0.815,4.021,0.473,4.834,0.49,5.68v13.64c-0.004,0.06-0.004,0.12,0,0.18v0.17l0.08-0.08L5.36,14
	C6.001,13.261,6.797,12.67,7.69,12.27z"/>
<path class="st0" d="M26.8,13.59c-0.269-0.125-0.563-0.187-0.86-0.18H10.49c-0.694,0.026-1.375,0.196-2,0.5
	c-0.651,0.284-1.234,0.703-1.71,1.23L2,20.77c-0.258,0.244-0.415,0.576-0.44,0.93c-0.016,0.263,0.131,0.509,0.37,0.62
	c0.27,0.123,0.564,0.184,0.86,0.18h15.43c0.694-0.028,1.375-0.198,2-0.5c0.676-0.275,1.284-0.695,1.78-1.23l4.77-5.63
	c0.256-0.249,0.413-0.584,0.44-0.94C27.212,13.932,27.05,13.689,26.8,13.59z"/>
</svg>
