<?xml version="1.0" encoding="utf-8"?>
<!-- Generator: Adobe Illustrator 22.0.1, SVG Export Plug-In . SVG Version: 6.00 Build 0)  -->
<svg version="1.0" id="Layer_1" xmlns="http://www.w3.org/2000/svg" xmlns:xlink="http://www.w3.org/1999/xlink" x="0px" y="0px"
	 width="25px" height="25px" viewBox="0 0 25 25" style="enable-background:new 0 0 25 25;" xml:space="preserve">
<style type="text/css">
	.st0{fill:#FFFFFF;}
</style>
<title>TopBar</title>
<path class="st0" d="M8.21,5.25h8.58c0.26,0,0.47-0.21,0.47-0.47V1H7.74v3.78C7.74,5.04,7.95,5.25,8.21,5.25L8.21,5.25z"/>
<path class="st0" d="M23.64,6.79l-4.85-4.87v2.86c0,1.105-0.895,2-2,2H8.21c-1.105,0-2-0.895-2-2V1h-3.1C1.945,1,1,1.945,1,3.11
	c0,0,0,0,0,0v18.78C1,23.055,1.945,24,3.11,24c0,0,0,0,0,0h18.78c1.165,0,2.11-0.945,2.11-2.11v0V7.65
	C23.999,7.327,23.869,7.018,23.64,6.79z M20.42,19.16c0,0.679-0.551,1.23-1.23,1.23H5.81c-0.679,0-1.23-0.551-1.23-1.23v-6.42
	c0-0.679,0.551-1.23,1.23-1.23h13.38c0.679,0,1.23,0.551,1.23,1.23V19.16z"/>
<path class="st0" d="M17.79,13.48H7.21c-0.425,0-0.77,0.345-0.77,0.77c0,0.425,0.345,0.77,0.77,0.77h10.58
	c0.425,0,0.77-0.345,0.77-0.77C18.56,13.825,18.215,13.48,17.79,13.48z"/>
<path class="st0" d="M16.25,16.55h-7.5c-0.422-0.048-0.804,0.255-0.853,0.677c-0.048,0.422,0.255,0.804,0.677,0.853
	c0.058,0.007,0.117,0.007,0.175,0h7.5c0.422,0.048,0.804-0.255,0.853-0.677c0.048-0.422-0.255-0.804-0.677-0.853
	C16.367,16.543,16.308,16.543,16.25,16.55z"/>
</svg>
